<svg width="16" height="45" viewBox="0 0 16 45" fill="none" xmlns="http://www.w3.org/2000/svg">
<path d="M9 1C9 0.447715 8.55228 -2.41411e-08 8 0C7.44772 2.41411e-08 7 0.447715 7 1L9 1ZM7.2929 44.7071C7.68342 45.0976 8.31658 45.0976 8.70711 44.7071L15.0711 38.3431C15.4616 37.9526 15.4616 37.3195 15.0711 36.9289C14.6805 36.5384 14.0474 36.5384 13.6569 36.9289L8 42.5858L2.34315 36.9289C1.95262 36.5384 1.31946 36.5384 0.928934 36.9289C0.538409 37.3195 0.53841 37.9526 0.928934 38.3431L7.2929 44.7071ZM7 1L7 44L9 44L9 1L7 1Z" fill="white"/>
</svg>
