<svg width="92" height="86" viewBox="0 0 92 86" fill="none" xmlns="http://www.w3.org/2000/svg">
<path d="M25.5783 85.7917C25.3169 85.4767 25.5735 84.4942 25.9171 84.4942C26.0957 84.4942 26.1736 84.7079 26.1736 85.1977C26.1736 85.9383 25.9146 86.1968 25.5783 85.7917ZM71.2138 85.7168C71.3885 85.6713 71.631 85.6743 71.7526 85.7236C71.8742 85.7728 71.7312 85.8101 71.4349 85.8064C71.1385 85.803 71.039 85.7624 71.2138 85.7168ZM23.3897 85.0229C21.9477 84.4052 21.0131 84.3029 20.0775 84.6603C19.0203 85.064 18.3357 84.8961 18.4019 84.2494C18.4464 83.8152 18.3907 83.7718 17.732 83.7279C16.6268 83.6543 16.2054 83.5227 16.2054 83.2511C16.2054 83.1145 16.4514 82.9169 16.7521 82.8121C18.0573 82.3571 18.7945 81.4309 18.0139 81.2268C17.1034 80.9887 17.4962 80.4823 19.5281 79.2748C20.223 78.8618 20.2304 78.8476 19.7526 78.8422C19.1582 78.8354 19.1096 78.4883 19.6363 78.0117C20.0321 77.6535 20.3849 77.0482 20.5951 76.367C20.702 76.0205 20.654 75.9629 20.2586 75.9629C20.005 75.9629 19.7975 75.8985 19.7975 75.8198C19.7975 75.7412 20.0783 75.236 20.4215 74.6973C21.1478 73.5573 21.182 73.3513 20.6956 73.0474C20.1973 72.7363 20.2452 72.3835 20.8924 71.5983C21.5383 70.8147 21.488 70.5326 20.61 70.0145C19.9163 69.6052 19.7704 69.1378 20.3363 69.1378C20.8926 69.1378 20.7676 68.8985 19.8873 68.278C18.9684 67.6303 18.9167 67.4765 19.4832 67.0774C19.8144 66.8441 19.8409 66.7638 19.6303 66.6324C19.2604 66.4016 17.1599 66.0283 16.9526 66.1564C16.8514 66.219 16.8173 66.113 16.8717 65.9051C16.9607 65.5645 16.877 65.5454 15.2834 65.5428C13.0525 65.5394 12.935 65.449 13.7573 64.3722C14.1159 63.9025 14.4093 63.462 14.4093 63.3933C14.4093 63.3246 14.2094 63.1773 13.9652 63.066C13.7133 62.9512 13.4694 62.6473 13.4016 62.3637C13.108 61.1352 12.4844 61.164 9.9191 62.5247C7.1612 63.9875 3.89815 66.4277 1.34278 68.9383C0.626589 69.642 0.0406185 70.1481 0.0406185 70.063C0.0406185 69.7962 3.55768 66.4339 4.86741 65.4486C6.4018 64.2943 8.7995 62.806 10.7722 61.7834C11.6568 61.3249 12.254 60.9036 12.254 60.738C12.254 60.5855 12.0443 60.1858 11.788 59.8498C11.4553 59.4136 11.3536 59.1134 11.4322 58.8001C11.5313 58.4054 11.4864 58.3613 10.9852 58.3613C9.8326 58.3613 6.2327 59.4601 2.04948 61.0889C0.387568 61.7359 -0.329392 61.8661 0.142398 61.4351C0.456108 61.1485 4.97145 59.4683 7.4046 58.7328C10.779 57.7128 10.67 57.7729 10.6034 56.9682C10.5503 56.3271 10.5205 56.2984 9.964 56.3522C9.3802 56.4086 9.3802 56.4086 9.3802 55.4909C9.3802 54.5732 9.3802 54.5732 8.7067 54.6869C7.8357 54.8339 3.02489 55.934 1.34278 56.3708C0.314299 56.6379 0.0406185 56.6591 0.0406185 56.4716C0.0406185 56.2526 2.56493 55.5845 7.674 54.4513C8.5457 54.258 9.1038 54.0459 9.0929 53.912C9.083 53.7907 9.0628 53.2748 9.048 52.7656C9.0222 51.8806 9.0065 51.8528 8.6926 52.1369C8.5119 52.3004 8.2694 52.4342 8.1537 52.4342C7.8571 52.4342 7.8922 51.6892 8.2102 51.2351C8.4477 50.8961 8.4461 50.8423 8.1961 50.7464C7.9941 50.6689 7.9318 50.4493 7.9742 49.9648C8.0279 49.3519 7.9902 49.2861 7.5576 49.236C7.2816 49.204 7.0464 49.045 6.9973 48.8572C6.9031 48.497 5.88734 48.3021 2.19592 47.9361C1.0599 47.8234 0.0967488 47.6983 0.0555888 47.658C-0.209321 47.3988 0.513259 47.3975 2.77109 47.6532C6.5291 48.0789 6.5848 48.0741 7.1287 47.2736C7.7157 46.4098 7.7024 46.273 7.0453 46.4173C6.3347 46.5734 6.3541 46.4058 7.2249 44.869C8.0668 43.3834 8.1107 43.0945 7.4944 43.0945C7.2474 43.0945 7.0453 43.0093 7.0453 42.9051C7.0453 42.8009 7.3686 42.1796 7.7638 41.5245C8.2354 40.7424 8.4844 40.1135 8.4886 39.6933C8.4921 39.3413 8.6104 38.8513 8.7516 38.6043C9.1268 37.9481 9.0821 37.8439 8.4822 37.9757C7.4871 38.1943 7.7337 37.8058 9.6966 36.0624C10.2141 35.6028 10.6375 35.1841 10.6375 35.1319C10.6375 35.0798 10.462 35.0113 10.2475 34.9798C9.6075 34.8856 9.6816 34.5454 10.4069 34.2481C10.9232 34.0364 10.9919 33.9652 10.693 33.952C9.9713 33.9199 10.0664 33.5764 10.8954 33.221C11.3463 33.0277 11.7152 32.7554 11.7152 32.6157C11.7152 32.4761 11.8959 32.2418 12.1168 32.0952C12.449 31.8746 12.4795 31.7816 12.2933 31.5572C12.1695 31.408 12.119 31.1534 12.1812 30.9915C12.2433 30.8295 12.2155 30.597 12.1193 30.4748C12.0231 30.3525 11.8919 29.8506 11.8277 29.3592C11.7635 28.8679 11.349 27.4131 10.9065 26.1263C10.2408 24.1903 10.1144 23.6165 10.1735 22.8003C10.2243 22.1005 10.1214 21.4223 9.8195 20.4654C8.8065 17.2554 8.1354 13.3805 8.1238 10.6753C8.1178 9.2651 8.6013 1.71936 8.7712 0.57229C8.8711 -0.10171 9.1817 -0.17227 9.8913 0.31783C10.1536 0.49892 11.2976 1.13291 12.4336 1.72668C19.6606 5.5041 27.309 10.5388 31.6811 14.3967C33.9785 16.4239 34.3138 16.4843 37.9379 15.5236C38.7776 15.301 40.0027 14.917 40.6604 14.6702C41.7314 14.2684 41.9471 14.2427 42.7259 14.4241C43.6977 14.6504 44.0446 14.8288 44.0446 15.102C44.0446 15.2182 43.777 15.2416 43.3238 15.165C42.6265 15.0472 42.5943 15.0641 42.3371 15.6796C42.1908 16.0296 41.884 16.9645 41.6551 17.7572C41.1899 19.3687 41.0251 19.6441 40.8734 19.0641C40.7002 18.4019 40.4522 18.6205 40.4568 19.4311C40.4637 20.6255 41.2407 23.6968 41.5359 23.6968C41.6239 23.6968 41.7846 23.3533 41.8931 22.9335C42.2353 21.6089 42.2744 21.5202 42.4843 21.5902C42.8521 21.7128 43.1736 23.2127 43.1862 24.8643C43.2048 27.3139 42.3521 31.1685 41.62 31.9446C40.8546 32.7559 40.4735 33.4209 40.1386 34.5296C39.7825 35.7089 39.7794 35.812 40.0548 37.3657C40.3026 38.7639 40.3108 39.293 40.1164 41.3506C39.8288 44.3935 39.8212 44.4184 39.2224 44.2646C38.0443 43.9621 35.8352 44.4025 32.8871 45.5276C31.9681 45.8782 30.8561 46.2145 30.4159 46.2749C29.7221 46.37 29.6307 46.3452 29.729 46.089C29.8311 45.823 29.6787 45.8051 28.204 45.9098C26.588 46.0245 26.567 46.0208 26.6671 45.638C26.7528 45.3103 26.6923 45.2498 26.2792 45.2498C25.6876 45.2498 23.9088 44.7456 23.6606 44.5076C23.5438 44.3957 23.5727 44.281 23.7443 44.175C23.9443 44.0514 23.8159 43.9315 23.2015 43.6682C22.7589 43.4784 22.2899 43.1945 22.1593 43.0371C21.8766 42.6965 22.0347 42.3499 22.4076 42.4929C22.8375 42.658 22.7095 42.3851 22.1268 41.8948C21.7635 41.5891 21.616 41.331 21.6834 41.1188C21.8841 40.4865 20.069 39.4566 19.7276 40.009C19.6775 40.0901 19.0463 40.0528 18.325 39.9263C16.2004 39.5535 15.0828 39.6052 14.6202 40.0976C14.4054 40.3263 14.2296 40.6075 14.2296 40.7226C14.2296 40.8377 13.9118 41.0941 13.5234 41.2922C12.5876 41.7696 12.4572 42.0169 13.1414 42.0169C13.9457 42.0169 13.8179 42.2787 12.6866 42.9488C11.2952 43.7729 10.6292 44.3386 11.0416 44.3461C11.5194 44.3547 11.4181 44.654 10.8171 45.009C10.1443 45.4064 10.1249 45.6527 10.7722 45.577C11.6041 45.4797 11.3549 45.9894 10.1956 46.7566C9.1597 47.4421 9.1394 47.4704 9.567 47.633C10.3442 47.9285 10.5477 48.0675 10.5477 48.3031C10.5477 48.4298 10.6689 48.5977 10.8171 48.6763C10.9653 48.7549 13.1475 49.1557 15.6665 49.5669C18.1855 49.9781 22.4287 50.7073 25.0959 51.1874C29.9453 52.0602 29.9453 52.0602 31.023 51.0102C31.6157 50.4327 32.291 49.8629 32.5237 49.7439C32.9783 49.5114 34.078 49.6317 34.2651 49.9344C34.4275 50.1973 34.0456 50.5843 33.4852 50.7248C32.6854 50.9252 31.2924 51.5688 31.2924 51.7378C31.2924 51.8244 31.7707 51.8953 32.3554 51.8953C33.5754 51.8953 33.9865 52.0117 33.9865 52.3572C33.9865 52.6747 33.5821 52.8738 32.3701 53.1532C31.1867 53.426 30.0556 53.9678 29.9174 54.3281C29.8622 54.4719 29.7045 54.5894 29.5669 54.5894C29.2359 54.5894 29.2437 53.8147 29.5814 53.1617C29.9214 52.5043 29.7647 52.3808 28.2391 52.1039C18.3669 50.312 12.7529 49.3808 11.8215 49.3808C11.4035 49.3808 11.0666 49.5135 10.8241 49.7739C10.3931 50.2365 10.3583 50.4584 10.7167 50.4584C11.1893 50.4584 11.1939 50.7948 10.7337 51.703C10.2276 52.7017 10.0937 53.5006 10.5283 52.9281C10.917 52.4159 11.1763 52.5606 11.1763 53.2896C11.1763 53.8182 11.2643 54.0041 11.5804 54.1427C12.093 54.3676 12.1779 54.9458 11.8045 55.6678C11.5769 56.1081 11.5596 56.2879 11.7258 56.4882C11.8906 56.6867 11.8873 56.8066 11.7115 57.0185C11.3801 57.4178 11.6246 57.5442 12.2373 57.2904C12.5309 57.1688 12.8532 57.1201 12.9535 57.1821C13.0538 57.2441 14.0892 57.1341 15.2543 56.9376C18.4016 56.4069 22.3774 55.8919 25.8144 55.5699C27.5221 55.4099 29.3822 55.127 30.0352 54.928C30.6772 54.7324 31.827 54.5239 32.5901 54.4648C33.7508 54.3748 33.9953 54.4033 34.0857 54.6389C34.2751 55.1325 33.8239 55.6533 32.7276 56.2067C31.3809 56.8866 31.0194 56.8913 30.7896 56.2321C30.641 55.8057 30.4834 55.7023 29.8544 55.6179C29.4384 55.5621 28.8441 55.5499 28.5338 55.5908C28.2235 55.6317 26.4642 55.8297 24.6242 56.0308C21.359 56.3877 15.6232 57.2397 13.7357 57.6481C12.6688 57.879 12.5089 58.1315 13.3765 58.2151C13.9149 58.2671 13.9567 58.3167 13.9146 58.8552C13.8705 59.42 13.8913 59.4389 14.5569 59.4389C15.0572 59.4389 15.359 59.5605 15.6639 59.8851C15.8945 60.1306 16.3733 60.3785 16.728 60.4361C18.2554 60.684 18.3606 60.7241 18.3606 61.0588C18.3606 61.3137 18.5169 61.4061 19.0203 61.4486C19.8057 61.515 20.0033 61.8628 19.3489 62.027C18.8659 62.1483 18.8903 62.4922 19.3819 62.4922C19.5369 62.4922 20.1807 62.7468 20.8126 63.0579C21.7978 63.5429 22.0262 63.5941 22.4147 63.4171C23.108 63.1012 23.2466 63.1675 22.9235 63.6606C22.5666 64.2053 22.8256 64.6475 23.5014 64.6475C23.7521 64.6475 23.9285 64.7537 23.9285 64.9044C23.9285 65.0457 24.1103 65.1872 24.3326 65.2187C24.6555 65.2646 24.7263 65.3753 24.685 65.7701C24.6555 66.0517 24.7218 66.264 24.8392 66.264C24.9691 66.264 25.0035 66.4297 24.9324 66.713C24.8412 67.0764 24.8861 67.162 25.168 67.162C25.4157 67.162 25.5525 67.3307 25.6412 67.7458C25.7099 68.0668 25.8445 68.427 25.9404 68.5461C26.0363 68.6653 26.0626 68.8471 25.9988 68.9502C25.9302 69.0614 26.0658 69.1377 26.332 69.1377C26.912 69.1377 27.1436 69.5066 26.7196 69.7552C26.5407 69.8601 26.0214 70.2508 25.5655 70.6234C25.1097 70.9959 24.3934 71.5569 23.9737 71.87C23.2107 72.4393 23.2107 72.4393 23.7686 72.6739C24.1685 72.842 24.2949 72.991 24.2147 73.1998C24.1253 73.4329 24.1941 73.4737 24.5588 73.404C25.3986 73.2435 25.2187 73.6223 23.8055 74.99C22.522 76.2322 22.4417 76.4625 23.4346 76.0538C23.8389 75.8873 23.8748 76.5328 23.4795 76.8609C23.0678 77.2025 23.1577 77.4518 23.6481 77.3287C24.3076 77.1632 24.36 77.4816 23.8507 78.5583C23.2967 79.7293 23.2962 79.7346 23.7489 79.7346C24.2259 79.7346 24.2032 80.0976 23.6591 81.1715C23.0509 82.3716 23.0901 82.4392 23.9224 81.6264C24.5244 81.0385 24.6529 80.9781 24.752 81.2363C24.8693 81.542 24.7853 82.2029 24.5432 82.8777C24.4374 83.1729 24.4576 83.1969 24.6564 83.0124C25.0336 82.6625 25.3661 82.7477 25.3574 83.192C25.3422 83.9701 24.8759 85.3924 24.6273 85.4191C24.4899 85.4338 23.933 85.2556 23.3897 85.0229ZM24.2877 83.7758C24.2877 83.7264 24.2473 83.686 24.1979 83.686C24.1485 83.686 24.1081 83.7264 24.1081 83.7758C24.1081 83.8252 24.1485 83.8656 24.1979 83.8656C24.2473 83.8656 24.2877 83.8252 24.2877 83.7758ZM24.4673 83.4166C24.4673 83.3672 24.4269 83.3268 24.3775 83.3268C24.3281 83.3268 24.2877 83.3672 24.2877 83.4166C24.2877 83.466 24.3281 83.5064 24.3775 83.5064C24.4269 83.5064 24.4673 83.466 24.4673 83.4166ZM34.5144 43.3336C35.5464 43.0003 36.7342 42.0633 37.1541 41.2512C37.9745 39.6648 36.0003 36.1194 33.5821 34.8366C32.6316 34.3323 32.2973 34.4509 32.8901 35.082C33.2919 35.5097 33.2919 35.5097 32.7412 35.9018C32.4383 36.1175 32.1905 36.4537 32.1905 36.6491C32.1905 37.0052 32.7372 37.6359 33.3444 37.9801C33.6528 38.155 33.6544 38.2207 33.3757 39.3083C32.7359 41.8059 31.5101 43.1507 30.4272 42.5431C29.227 41.8698 28.634 39.6652 28.9639 37.1031C29.1937 35.3175 29.4657 34.6842 30.1917 34.2437C30.6276 33.9791 30.6374 33.9476 30.3206 33.826C29.3332 33.4472 24.9317 34.8431 24.5069 35.6698C24.13 36.4034 24.1037 38.199 24.4535 39.3229C25.1465 41.5495 26.7398 42.9468 29.1371 43.4305C29.6804 43.5402 30.2866 43.6667 30.4842 43.7117C31.1402 43.8612 33.5933 43.6311 34.5144 43.3336ZM76.6435 84.9166C76.1226 84.747 73.1149 84.2287 72.6366 84.2261C72.5073 84.2254 72.4515 84.144 72.5125 84.0452C72.5735 83.9464 73.3461 83.8656 74.2294 83.8656C75.1957 83.8656 75.8352 83.793 75.8352 83.6834C75.8352 83.4009 74.8045 82.8408 73.6459 82.4938C73.0683 82.3207 72.6223 82.0939 72.6549 81.9896C72.6875 81.8854 73.2106 81.6382 73.8172 81.4404C75.0359 81.0429 75.6341 80.6327 74.9951 80.6327C74.548 80.6327 73.7186 80.2958 72.548 79.6388C71.4952 79.0478 71.5674 78.8656 72.6852 79.2925C73.1379 79.4654 73.5613 79.554 73.626 79.4893C73.7765 79.3388 72.9186 78.4413 72.0465 77.837C71.6755 77.5799 71.3239 77.2445 71.2653 77.0917C71.1759 76.8587 71.2752 76.8325 71.8805 76.9293C72.2775 76.9928 72.6023 76.9765 72.6023 76.8931C72.6023 76.8097 72.279 76.4816 71.8839 76.1641C71.0128 75.4641 70.9706 75.2148 71.7492 75.369C72.277 75.4735 72.3095 75.4561 72.0882 75.1871C71.9536 75.0234 71.5697 74.7203 71.2351 74.5135C70.5312 74.0785 70.4534 73.8087 71.0307 73.8048C71.9712 73.7987 71.9518 73.5099 70.9618 72.7785C69.712 71.8552 69.431 71.5188 69.6916 71.2582C69.8374 71.1123 69.7008 70.8431 69.181 70.2527C68.2125 69.1523 68.2176 68.9045 69.1987 69.4118C69.8074 69.7266 69.8501 69.5965 69.451 68.6415C69.2564 68.1758 69.2247 67.8688 69.3449 67.6145C69.4393 67.4151 69.5616 67.1104 69.6169 66.9375C69.7256 66.5974 70.3548 66.5082 70.5393 66.8068C70.6017 66.9078 71.0961 67.318 71.6381 67.7183C72.6606 68.4737 72.7734 68.7905 72.0784 68.9546C71.6941 69.0454 71.7126 69.0843 72.406 69.6416C73.2203 70.296 73.3213 70.7152 72.7819 71.2032C72.2743 71.6627 72.332 71.9618 73.0514 72.5987C73.3971 72.9048 73.68 73.2488 73.68 73.3632C73.68 73.4775 73.3567 73.668 72.9616 73.7863C72.5664 73.9047 72.2431 74.074 72.2431 74.1626C72.2431 74.2511 72.8089 74.8301 73.5004 75.4493C74.7385 76.5578 74.9757 76.9343 74.5331 77.0891C74.3686 77.1467 74.3925 77.2623 74.6229 77.5223C75.0629 78.0188 75.0144 78.2978 74.4882 78.2978C73.9644 78.2978 73.9469 78.3921 74.3097 79.2605C74.6282 80.0227 75.0437 80.17 76.237 79.9434C78.0182 79.6052 77.5841 80.73 75.6674 81.4193C75.1582 81.6023 74.767 81.8284 74.7981 81.9215C74.8291 82.0147 75.3244 82.2819 75.8987 82.5153C77.7194 83.2552 78.9199 84.2248 78.0155 84.2248C77.7557 84.2248 77.7003 84.325 77.767 84.6739C77.8629 85.1757 77.6084 85.2307 76.6435 84.9166ZM89.9345 70.8214C87.5063 68.7541 81.4325 64.6281 79.4332 63.6876C78.5392 63.2671 78.4236 63.2508 78.1424 63.5052C77.7916 63.8227 77.4532 63.6958 77.4486 63.245C77.4425 62.6794 75.1264 61.4772 69.571 59.1566C67.9765 58.4905 66.6985 57.9189 66.731 57.8864C66.8531 57.7643 72.7808 60.2172 75.4855 61.5089C78.715 63.0513 79.5773 63.234 78.8045 62.2123C78.4707 61.771 78.4631 61.5942 78.7778 61.5942C79.0847 61.5942 79.2999 60.856 79.0623 60.6184C78.5057 60.0618 79.3481 59.9918 80.0413 60.537C80.3067 60.7459 80.5711 60.8696 80.6288 60.8119C80.797 60.6437 79.95 58.8329 79.5827 58.5756C78.9847 58.1566 79.1909 57.9497 80.1009 58.0557C80.5701 58.1103 81.1483 58.2141 81.3856 58.2863C81.8076 58.4146 81.8144 58.3998 81.6907 57.6261C81.6211 57.1908 81.3591 56.4847 81.1086 56.0572C80.858 55.6296 80.6978 55.2349 80.7526 55.1801C80.9766 54.9561 82.1003 56.3582 82.3032 57.1149C82.4209 57.5534 82.5645 57.9897 82.6224 58.0843C82.709 58.2259 82.7432 59.6323 82.6772 60.337C82.6399 60.7351 82.2884 60.4775 82.0034 59.843C81.7009 59.1695 81.7009 59.1695 81.5071 60.4118C81.3074 61.692 81.0866 61.9887 80.6896 61.5104C80.3146 61.0585 80.0222 61.1927 79.7163 61.9571C79.2272 63.1794 79.3096 63.3148 81.1337 64.2879C83.8903 65.7585 88.4123 68.9817 89.926 70.5551C90.7293 71.39 90.7329 71.5011 89.9345 70.8214ZM73.3656 66.8788C72.5507 66.4303 71.8839 65.9872 71.8839 65.8943C71.8839 65.6504 72.1068 65.6857 72.5569 66.001C72.9179 66.2539 72.9684 66.2482 73.1657 65.9323C73.3397 65.6535 73.5206 65.6062 74.1141 65.6844C75.2304 65.8313 76.2366 66.6232 75.307 66.6232C74.8405 66.6232 74.6986 66.8959 74.9352 67.338C75.209 67.8495 75.0393 67.7999 73.3656 66.8788ZM66.7118 62.2356C65.8775 61.6457 65.7601 61.4771 66.4645 61.8806C66.7932 62.0688 67.1466 62.3239 67.2499 62.4473C67.5153 62.7647 67.3907 62.7157 66.7118 62.2356ZM26.0838 61.5987C26.3308 61.4025 27.8466 60.5892 29.4524 59.7916C32.1357 58.4587 32.3636 58.308 32.2686 57.9295C32.1746 57.5552 32.2648 57.4897 33.2569 57.2113C34.4471 56.8774 34.705 56.9291 34.705 57.5017C34.705 57.855 34.7252 57.8598 35.0334 57.5809C35.2141 57.4174 35.4162 57.2836 35.4825 57.2836C35.69 57.2836 35.6145 57.818 35.329 58.3702C34.9735 59.0576 35.3475 59.1054 35.9622 58.4511C36.4566 57.9249 36.6294 57.9 37.0631 58.2924C37.4417 58.6351 37.3329 58.6933 40.4611 56.4754C44.7263 53.4513 44.6237 53.5735 44.7279 51.3951C44.7996 49.8942 44.7796 49.7873 44.3263 49.2485C44.0638 48.9367 43.0445 48.1372 42.061 47.4719C41.0775 46.8066 40.2728 46.1668 40.2728 46.0501C40.2728 45.9334 40.8738 45.5329 41.6084 45.16C42.8211 44.5445 43.0235 44.4949 43.8086 44.6208C44.2841 44.697 45.4078 44.7427 46.3056 44.7224C47.7981 44.6886 47.9828 44.7227 48.4609 45.1206C49.3252 45.8397 49.7455 46.0059 50.1513 45.7887C50.3489 45.683 50.5105 45.6692 50.5105 45.7581C50.5105 46.1708 49.7103 46.8379 48.4273 47.495C45.805 48.8379 45.1172 49.8508 45.383 51.9784C45.5853 53.5975 45.8909 53.9248 49.343 56.2205C50.2321 56.8117 51.3855 57.6554 51.9061 58.0953C52.9706 58.9946 53.6307 59.2365 54.1447 58.9155C54.4254 58.7402 54.5776 58.755 54.9404 58.9927C55.1871 59.1543 55.5095 59.2403 55.6569 59.1838C55.8042 59.1272 56.0757 59.1617 56.2601 59.2604C56.4789 59.3776 56.6332 59.3786 56.7044 59.2638C56.8848 58.9719 56.4572 58.3734 55.9834 58.2544C55.707 58.1851 55.5395 58.0148 55.5395 57.8033C55.5395 57.2747 56.199 57.3813 56.4736 57.9544C56.603 58.2243 56.968 58.6082 57.2847 58.8075C58.0867 59.3121 58.0149 59.557 57.0213 59.706C56.5521 59.7763 56.0065 59.9212 55.8089 60.0278C55.3616 60.2693 54.0109 60.1997 53.2945 59.8982C52.9981 59.7735 52.1537 59.1674 51.418 58.5515C49.8675 57.2533 47.3189 55.9089 45.917 55.6497C43.9207 55.2807 42.0223 55.9787 39.1882 58.1237C37.1324 59.6798 36.6656 59.8616 35.679 59.4907C35.2915 59.345 34.8128 59.2071 34.6152 59.1842C34.0501 59.1187 33.2681 58.7481 33.2681 58.5456C33.2681 58.2782 32.7146 58.3202 32.3842 58.6126C32.0721 58.8889 27.4961 61.206 26.3532 61.6664C25.6348 61.9559 25.6348 61.9556 26.0838 61.5987ZM34.2859 58.2415C34.22 58.1757 34.1662 58.2296 34.1662 58.3613C34.1662 58.493 34.22 58.5469 34.2859 58.481C34.3518 58.4152 34.3518 58.3074 34.2859 58.2415ZM45.9754 48.1623C46.0989 48.0045 46.1999 47.6259 46.1999 47.321C46.1999 46.1641 47.2269 45.5743 48.0964 46.232C48.5839 46.6008 48.894 46.5697 48.894 46.152C48.894 45.5648 48.1112 45.1974 46.8967 45.2146C46.2999 45.2231 45.6954 45.3264 45.5534 45.4443C45.3498 45.6133 45.2263 45.5963 44.97 45.3645C44.4898 44.9299 42.6891 44.9672 41.9342 45.4275C41.2868 45.8222 41.2238 45.9988 41.6144 46.3229C41.8269 46.4993 41.9714 46.4687 42.357 46.1653C42.6203 45.9582 42.9461 45.7887 43.081 45.7887C43.543 45.7887 43.9881 46.4508 44.1064 47.3139C44.1715 47.7887 44.3183 48.29 44.4327 48.4278C44.6916 48.7398 45.653 48.5743 45.9754 48.1623ZM91.5614 61.4315C91.4244 61.2099 88.9844 60.3407 86.1627 59.5085C83.6506 58.7675 83.4651 58.4391 85.9288 59.0944C87.7289 59.5733 92 61.223 92 61.4394C92 61.6439 91.6892 61.6383 91.5614 61.4315ZM62.3646 59.3491C62.3646 59.2997 62.405 59.2593 62.4544 59.2593C62.5039 59.2593 62.5442 59.2997 62.5442 59.3491C62.5442 59.3985 62.5039 59.4389 62.4544 59.4389C62.405 59.4389 62.3646 59.3985 62.3646 59.3491ZM61.6013 58.977C60.9299 58.6127 60.9707 58.461 61.6462 58.8103C61.9425 58.9635 62.185 59.1273 62.185 59.1741C62.185 59.2897 62.1658 59.2832 61.6013 58.977ZM57.5601 57.1154C56.9427 56.4321 56.4376 55.7863 56.4376 55.6803C56.4376 55.4039 57.2985 55.4422 58.8749 55.7885C60.3369 56.1098 60.6212 56.3701 60.1176 56.9265C59.826 57.2488 59.8241 57.307 60.0922 57.7161C60.3816 58.1579 60.3816 58.1579 59.7795 58.0602C59.428 58.0031 59.126 58.0454 59.0541 58.1619C58.8496 58.4928 58.7272 58.4071 57.5601 57.1154ZM66.1963 57.7027C66.2621 57.6369 66.3699 57.6369 66.4358 57.7027C66.5016 57.7685 66.4477 57.8224 66.316 57.8224C66.1843 57.8224 66.1304 57.7685 66.1963 57.7027ZM65.7772 57.553C65.7772 57.5036 65.8176 57.4632 65.867 57.4632C65.9164 57.4632 65.9568 57.5036 65.9568 57.553C65.9568 57.6024 65.9164 57.6428 65.867 57.6428C65.8176 57.6428 65.7772 57.6024 65.7772 57.553ZM63.5022 56.625C63.568 56.5592 63.6758 56.5592 63.7416 56.625C63.8075 56.6909 63.7536 56.7448 63.6219 56.7448C63.4902 56.7448 63.4363 56.6909 63.5022 56.625ZM63.0831 56.4754C63.0831 56.426 63.1235 56.3856 63.1729 56.3856C63.2223 56.3856 63.2627 56.426 63.2627 56.4754C63.2627 56.5248 63.2223 56.5652 63.1729 56.5652C63.1235 56.5652 63.0831 56.5248 63.0831 56.4754ZM82.5568 55.8669C81.1345 54.9143 80.1708 53.9191 80.5351 53.7793C80.683 53.7226 81.1345 53.7503 81.5384 53.8411C82.4612 54.0484 82.4085 53.8028 81.3471 52.9492C80.5949 52.3444 80.5949 52.3444 75.9251 52.318C71.5415 52.2932 63.2526 52.6205 61.9163 52.8712C61.5856 52.9333 61.2703 52.9116 61.2156 52.8231C60.9963 52.4683 66.2855 52.1386 74.6678 51.9846C80.3015 51.881 80.7953 51.8468 81.0439 51.5419C81.1921 51.3602 81.6568 51.1562 82.0766 51.0886C82.5243 51.0165 82.84 50.8683 82.84 50.7301C82.84 50.6005 82.3994 50.0918 81.8609 49.5997C80.8885 48.711 80.8011 48.4828 81.433 48.4828C82.0335 48.4828 81.7764 48.1378 80.4652 47.1841C79.5494 46.518 79.2614 46.2227 79.4855 46.1795C79.6601 46.1459 80.0548 46.2062 80.3627 46.3136C80.6706 46.4209 80.9541 46.4772 80.9927 46.4386C81.0312 46.4 80.4935 45.8541 79.7978 45.2254C79.1021 44.5968 78.5321 44.0269 78.5311 43.959C78.5304 43.8912 78.792 43.8083 79.1131 43.7749C79.6968 43.714 79.6968 43.714 79.0887 43.3594C78.7542 43.1643 78.257 42.7929 77.9838 42.5341C77.7105 42.2753 77.1962 42.0089 76.8407 41.9422C76.1527 41.8132 75.9897 41.5579 76.5088 41.4223C77.3543 41.2013 74.5228 41.3391 73.5902 41.5643C72.0996 41.9242 71.8977 41.9132 72.0114 41.4781C72.2012 40.7525 71.3951 41.2041 70.0419 42.5813C69.1728 43.4659 69.0705 43.6334 69.3997 43.6334C69.7912 43.6334 69.7912 43.6334 69.3801 44.0709C69.154 44.3116 68.3923 44.8149 67.6875 45.1893C66.4495 45.8468 66.3339 45.8724 64.2955 45.9381C63.0051 45.9797 62.1851 46.0783 62.1851 46.1919C62.1851 46.4446 60.533 46.2588 59.4333 45.8825C58.7667 45.6544 58.5094 45.6344 58.3151 45.7956C58.0303 46.032 57.5654 45.895 55.0007 44.8192C53.8658 44.3431 53.2127 44.1779 52.4556 44.1755C51.4811 44.1721 51.4322 44.1499 51.3238 43.6563C51.2615 43.3726 51.2063 41.9784 51.2012 40.5581C51.1939 38.5097 51.2642 37.7282 51.5413 36.7786C51.8617 35.6808 51.871 35.4578 51.6531 34.0883C51.337 32.102 51.2745 31.9519 50.9486 32.3947C50.6413 32.8123 50.7019 32.875 49.9207 31.3302C48.7197 28.9553 48.5429 24.799 49.5524 22.6717C49.9612 21.8102 50.2628 21.9276 50.3895 22.9974C50.4905 23.8505 50.7478 24.4153 51.0353 24.4153C51.1973 24.4153 51.5386 23.4208 51.6824 22.5294C51.7461 22.1343 51.9127 21.2284 52.0525 20.5164C52.3391 19.0561 52.3878 17.3024 52.1458 17.1528C51.9432 17.0276 51.7678 17.4715 51.7678 18.1094C51.7678 18.3788 51.6568 18.751 51.5211 18.9365C51.2805 19.2655 51.2721 19.2653 51.1779 18.9259C50.9618 18.1472 50.6407 15.1044 50.7457 14.8307C50.8882 14.4593 51.4722 14.4501 51.7746 14.8144C51.9013 14.9671 52.1189 15.0483 52.2581 14.9948C52.62 14.856 55.8268 15.7263 56.9737 16.2747C57.321 16.4407 58.0246 16.6121 58.5374 16.6557C59.2863 16.7193 59.5625 16.6618 59.9408 16.3643C60.1999 16.1605 60.5265 16.0378 60.6667 16.0915C60.8145 16.1483 61.3941 15.7778 62.0472 15.2092C65.8887 11.8646 73.8944 6.8539 80.5949 3.6003C83.7576 2.06448 85.991 1.27162 86.2957 1.57637C86.5792 1.8599 87.1026 7.1125 87.256 11.2141C87.4329 15.9437 86.9449 20.2443 85.8599 23.5172C85.647 24.1593 85.453 24.8868 85.4286 25.1337C85.4042 25.3807 85.2985 26.063 85.1936 26.65C85.0125 27.6638 84.8028 28.3621 83.7756 31.3734C83.4313 32.3826 83.3788 32.7303 83.5412 32.9259C83.7031 33.121 83.6881 33.2404 83.4748 33.4536C83.3232 33.6052 83.1992 33.9396 83.1992 34.1967C83.1992 34.4539 83.078 34.7107 82.9298 34.7676C82.5809 34.9015 82.5882 35.1736 82.9516 35.5751C83.3504 36.0158 83.1588 36.3899 82.455 36.5445C81.8661 36.6738 81.8661 36.6738 82.3909 37.0923C82.6796 37.3225 82.8565 37.5701 82.784 37.6425C82.7116 37.715 82.9925 38.121 83.4084 38.5447C84.2531 39.4054 84.2413 39.679 83.3788 39.233C82.5867 38.8234 82.5208 39.0051 83.1661 39.8199C83.9246 40.7775 84.2518 41.5163 83.9604 41.6135C83.6003 41.7335 83.707 42.2137 84.3652 43.435C84.7056 44.0668 84.9413 44.6531 84.8889 44.7378C84.8365 44.8226 84.5965 44.8425 84.3556 44.782C83.7467 44.6292 83.7838 45.0321 84.4564 45.8785C85.0782 46.6609 85.0584 46.5904 84.7811 47.0346C84.5995 47.3253 84.668 47.5298 85.2301 48.3764C85.9941 49.5272 86.0731 49.8489 85.5187 49.5522C84.9642 49.2555 84.8961 49.4649 85.2189 50.4743C85.4961 51.341 85.4936 51.397 85.1624 51.7282C84.5134 52.3773 84.7144 52.5503 86.4771 52.8601C89.2613 53.3495 92 54.103 92 54.3797C92 54.5426 91.892 54.5862 91.6857 54.5064C91.5128 54.4396 90.1047 54.0673 88.5566 53.679C84.6919 52.7096 83.2127 52.7481 83.4906 53.8107C83.5537 54.0522 83.4852 54.2198 83.2938 54.2934C83.0458 54.3885 83.0999 54.5366 83.643 55.2478C84.7179 56.6556 84.1866 56.9584 82.5568 55.8669ZM63.3159 44.1848C66.0606 43.2405 67.9325 40.8744 67.9325 38.3495C67.9325 37.4637 67.8841 37.3528 67.3038 36.9103C66.9581 36.6465 66.2031 36.1965 65.6262 35.9103C64.499 35.351 62.2451 34.7126 62.0581 34.8996C61.9955 34.9623 62.1369 35.2188 62.3724 35.4695C62.7344 35.8548 62.767 35.9796 62.5827 36.2746C62.2395 36.8243 62.3257 37.4662 62.8137 37.9927C63.3155 38.5342 63.3531 38.8785 63.0609 40.2569C62.6853 42.029 61.6192 43.4538 60.6688 43.4538C59.7174 43.4538 58.9033 42.2207 58.5936 40.3106C58.3837 39.0159 58.6704 36.562 59.1207 35.7988C59.592 34.9999 59.5887 34.9818 58.997 35.1243C57.5102 35.4823 55.9231 36.726 55.043 38.2228C54.6159 38.9492 53.7002 41.9795 53.8394 42.206C54.0415 42.5348 58.1164 44.3817 58.9521 44.5233C60.2853 44.7491 62.0803 44.6099 63.3159 44.1848ZM62.0952 56.1098C61.6461 55.8935 61.6312 55.8686 62.0054 55.9601C62.5143 56.0844 63.0864 56.376 62.8137 56.372C62.7149 56.3706 62.3916 56.2526 62.0952 56.1098ZM59.6705 55.2758C59.4236 55.0671 58.7913 54.6975 58.2656 54.4544C57.1981 53.9609 56.9667 53.6242 57.3984 53.1925C57.6472 52.9437 57.828 52.9297 58.6353 53.0971C59.1553 53.2049 59.6209 53.2551 59.6699 53.2085C59.8859 53.0036 58.3585 51.8947 57.3575 51.5297C56.2111 51.1117 55.8779 50.5998 56.625 50.4044C57.5027 50.1749 58.8838 50.9165 59.703 52.0573C60.1708 52.7086 60.2951 53.0727 60.3431 53.9318C60.3759 54.5183 60.4833 55.1486 60.5818 55.3326C60.8364 55.8084 60.2582 55.7723 59.6705 55.2758ZM54.866 55.3686C54.5533 55.2424 54.5847 54.9487 54.9109 54.9487C55.059 54.9487 55.1803 55.0699 55.1803 55.2181C55.1803 55.3663 55.16 55.4811 55.1354 55.4733C55.1107 55.4655 54.9895 55.4184 54.866 55.3686ZM35.4542 54.649C35.489 54.4663 35.7028 54.2936 35.9352 54.2606C36.259 54.2146 36.3393 54.2754 36.2907 54.53C36.2559 54.7127 36.0421 54.8853 35.8097 54.9184C35.4859 54.9644 35.4056 54.9036 35.4542 54.649ZM52.389 54.3979C52.2237 54.1305 52.4153 53.9851 52.7592 54.117C52.9179 54.1779 52.9975 54.3091 52.936 54.4086C52.7904 54.6442 52.5381 54.6392 52.389 54.3979ZM37.9716 54.0394C38.0148 53.9098 38.1563 53.7683 38.2859 53.7251C38.4206 53.6803 38.488 53.7476 38.4431 53.8823C38.3999 54.0119 38.2584 54.1534 38.1288 54.1966C37.9941 54.2415 37.9267 54.1741 37.9716 54.0394ZM55.0808 53.3166C55.0144 53.2092 55.0366 53.0449 55.13 52.9515C55.3554 52.726 55.8987 52.9454 55.8987 53.2616C55.8987 53.5565 55.2558 53.5997 55.0808 53.3166ZM52.9689 52.857C52.7221 52.6103 52.8501 52.2292 53.1597 52.2888C53.3326 52.322 53.474 52.4627 53.474 52.6013C53.474 52.8849 53.1572 53.0453 52.9689 52.857ZM35.1839 52.6737C34.7772 52.2669 35.4484 51.7231 35.8974 52.0957C36.0857 52.252 36.0967 52.362 35.9425 52.5478C35.724 52.8111 35.3786 52.8684 35.1839 52.6737ZM37.2996 52.4185C37.1598 52.1923 37.5642 51.6856 37.7787 51.8181C38.0286 51.9726 37.9651 52.3853 37.6743 52.4969C37.5293 52.5526 37.3607 52.5173 37.2996 52.4185ZM54.4619 50.9075C54.4619 50.7225 54.5796 50.6344 54.7762 50.6723C55.1548 50.7452 55.1309 51.064 54.7408 51.1452C54.578 51.1791 54.4619 51.0801 54.4619 50.9075ZM35.7243 50.3403C35.5398 50.1558 35.9687 49.7401 36.3434 49.7401C36.7303 49.7401 36.7766 49.9315 36.4651 50.243C36.2274 50.4807 35.9068 50.5228 35.7243 50.3403ZM45.9305 41.4693C45.5354 41.3884 45.0706 41.3628 44.8977 41.4123C44.3446 41.5707 44.5618 41.1616 45.1374 40.9609C45.5939 40.8018 45.8151 40.8309 46.3946 41.1266C47.4592 41.6697 47.3398 41.7578 45.9305 41.4693ZM45.8812 15.4705C45.9382 14.4171 46.0476 13.8937 46.2539 13.6874C46.5235 13.4179 46.5555 13.4204 46.6707 13.7207C46.8067 14.0751 46.2577 16.4912 45.9751 16.782C45.8618 16.8985 45.8288 16.438 45.8812 15.4705ZM48.0105 14.8019C47.3871 14.4596 47.1588 13.9981 47.6129 13.9981C47.8071 13.9981 48.0014 13.897 48.0446 13.7735C48.1705 13.4136 48.894 14.1639 48.894 14.6545C48.894 15.1211 48.6622 15.1597 48.0105 14.8019ZM49.6124 14.5369C49.6124 14.3393 49.6933 14.1777 49.7921 14.1777C49.8908 14.1777 49.9717 14.3393 49.9717 14.5369C49.9717 14.7344 49.8908 14.8961 49.7921 14.8961C49.6933 14.8961 49.6124 14.7344 49.6124 14.5369Z" fill="black"/>
</svg>
