<svg width="135" height="127" viewBox="0 0 135 127" fill="none" xmlns="http://www.w3.org/2000/svg">
<path d="M105.84 91.16V54.04C105.84 52.376 105.072 50.968 103.28 50.84V50.2H110.32V50.84C108.592 50.968 107.76 52.44 107.76 53.976V64.728L119.28 50.2H122.48V50.84C121.648 50.968 118.384 52.12 117.616 53.144L110.32 62.36C125.936 72.344 119.984 91.992 132.912 97.624L132.72 98.2C118.768 94.744 122.544 72.984 110 62.744L107.76 65.56V91.16C107.76 92.888 108.528 94.168 110.32 94.36V95H103.28V94.36C105.072 94.168 105.84 92.888 105.84 91.16Z" fill="black"/>
<path d="M5.824 88.664L19.904 54.68V54.04C19.904 52.312 19.2 50.968 17.408 50.84V50.2H24.384V50.84C22.592 50.968 21.888 52.248 21.824 53.912V91.16C21.824 92.888 22.656 94.168 24.384 94.36V95H17.344V94.36C19.2 94.232 19.904 92.952 19.904 91.16V56.6L5.824 90.52V91.48C5.824 93.016 6.72 94.232 8.384 94.36V95H1.344V94.36C3.2 94.232 3.904 93.016 3.904 91.224V53.848C3.904 52.184 3.136 50.968 1.408 50.84V50.2H8.384V50.84C6.592 50.968 5.824 52.312 5.824 54.04V88.664Z" fill="black"/>
<path d="M65.8291 21.5765L74.0547 13.9969C75.6463 12.5314 76.9069 10.6878 77.3954 8.59196C78.0257 5.92887 77.5057 3.42336 76.0717 1.97363C75.8669 1.76878 74.0075 -0.20096 71.3916 0.0196506C68.697 0.25602 66.3018 2.73001 65.8291 6.08645C65.3564 2.73001 62.9611 0.25602 60.2665 0.0196506C57.6507 -0.216718 55.7913 1.75302 55.5864 1.97363C54.1525 3.42336 53.6325 5.92887 54.2628 8.59196C54.7513 10.6878 56.0119 12.5314 57.6034 13.9969L65.8291 21.5765Z" fill="black"/>
<path d="M44.1305 72.8527C43.9729 72.1752 43.7996 71.6079 43.705 70.8042C43.6262 70.2369 43.579 69.6696 43.579 69.1024C43.1535 69.323 42.6965 69.4648 42.271 69.5909C41.5619 69.7957 40.9001 70.0006 40.3643 70.5048C38.8988 71.8915 39.1825 74.6019 39.3716 76.3983C39.7655 79.8808 41.4044 82.4178 42.7438 83.9936C42.9801 84.2142 43.2953 84.3876 43.6262 84.4821C44.0517 83.1427 44.5402 81.882 45.139 80.7317C45.1547 78.5571 44.9499 76.4613 44.5244 74.4916C44.3826 73.814 44.2565 73.294 44.1305 72.8527Z" fill="black"/>
<path d="M45.6748 64.8005C45.1075 66.7702 44.9657 68.7242 45.202 70.5994C45.2966 71.3243 45.4542 71.8443 45.6118 72.4746C45.7378 72.9473 45.8481 73.4673 46.0215 74.1607C46.3051 75.5789 46.4627 77.0759 46.573 78.5572C46.7621 78.3523 46.9354 78.1317 47.1403 77.9426L48.2118 76.9656C48.7633 76.4614 49.3149 75.9729 49.8664 75.4371C50.4967 72.6637 50.7173 70.0006 50.5913 67.2902C50.544 66.6442 50.4967 66.1241 50.4494 65.6672C50.3707 64.9738 50.3076 64.3908 50.3076 63.5556C50.3234 62.5786 50.4494 61.7277 50.5755 61.0659C50.3864 61.1446 50.2131 61.2234 50.0082 61.3337C48.1173 62.1847 46.1475 63.0829 45.6748 64.8005Z" fill="black"/>
<path d="M55.2398 69.2284C57.4775 65.7459 58.3914 62.6101 58.8799 60.924C59.5575 58.6233 60.2193 56.2911 60.9127 53.959C60.6133 53.2656 60.2981 52.588 59.9987 51.9577C58.4544 53.1238 56.9259 54.3056 55.4604 55.5032C53.9319 56.7796 52.8604 58.3712 52.3876 60.1045C52.2301 60.6876 51.8834 61.9325 51.8519 63.587C51.8361 64.3119 51.8991 64.8634 51.9464 65.4938C52.0094 65.9823 52.041 66.518 52.0882 67.1956C52.2143 69.3072 52.0882 71.403 51.7573 73.5461C52.9864 72.3169 54.1368 70.9145 55.2398 69.2284Z" fill="black"/>
<path d="M50.9538 28.4154C50.8907 28.4311 49.6774 28.9984 49.1889 30.2748C48.3064 32.4336 50.3865 35.0967 53.2544 38.7998C54.7672 40.7538 56.4848 42.9914 58.2024 45.6545C59.1636 47.1673 60.0776 48.7746 60.9443 50.4607C61.1649 50.8704 61.3698 51.3116 61.5904 51.7686C63.1031 46.8049 64.6632 41.9987 66.3335 37.8071C60.3455 30.6057 54.1999 26.8396 50.9538 28.4154Z" fill="black"/>
<path d="M67.2946 126.067C68.3504 120.962 69.9577 116.124 72.1008 111.665C75.3784 104.826 79.2234 100.004 82.6271 95.7333C87.1496 90.092 90.7109 85.6325 90.3012 79.2663C90.1751 77.328 89.5448 75.6419 88.3315 72.3013C85.7314 65.2732 81.8865 58.7652 76.9385 52.9348C75.6148 57.0791 74.7009 61.3337 75.0475 65.415C75.5833 71.5134 77.9155 81.693 78.1834 82.8276L76.7179 83.19C76.4342 82.0239 74.0705 71.7497 73.5505 65.5254C72.9675 58.6234 75.7251 51.422 78.1676 45.0558C80.9095 37.8859 83.2889 31.6931 80.2161 28.0845C79.7907 27.5803 78.2621 25.9414 76.5288 26.0675C73.5348 26.2566 70.6511 31.0943 67.9565 37.8229C67.9407 37.9017 67.8934 37.9647 67.8619 38.0435C65.1516 44.8352 62.6303 53.502 60.3927 61.2549C59.8569 63.1144 58.9114 66.3605 56.5477 70.0479C54.9247 72.5691 53.081 74.5074 51.3003 76.1935C51.2373 76.3983 51.0797 76.5401 50.8749 76.6032C50.3233 77.1074 49.8033 77.5959 49.2676 78.0687L48.2118 79.0456C44.2881 82.6542 42.9959 95.1818 42.9801 95.3078C42.9329 95.7018 42.6177 96.0012 42.2238 96.0012C42.208 96.0012 42.1607 95.9854 42.145 95.9854C41.7353 95.9382 41.4201 95.5757 41.4674 95.1502C41.4831 94.8508 41.9559 90.3914 43.2008 85.9319C42.9801 85.8688 42.7753 85.7743 42.5704 85.664C42.0189 86.9876 40.9001 90.0447 39.5764 95.4181C37.6855 103.25 40.9946 115.446 41.6722 117.826C42.4444 120.489 41.7195 123.058 41.168 124.444L67.2946 126.067Z" fill="black"/>
</svg>
