<svg width="51" height="36" viewBox="0 0 51 36" fill="none" xmlns="http://www.w3.org/2000/svg">
<path d="M3.64 28.04L12.44 6.8V6.4C12.44 5.32 12 4.48 10.88 4.4V4H15.24V4.4C14.12 4.48 13.68 5.28 13.64 6.32V29.6C13.64 30.68 14.16 31.48 15.24 31.6V32H10.84V31.6C12 31.52 12.44 30.72 12.44 29.6V8L3.64 29.2V29.8C3.64 30.76 4.2 31.52 5.24 31.6V32H0.84V31.6C2 31.52 2.44 30.76 2.44 29.64V6.28C2.44 5.24 1.96 4.48 0.88 4.4V4H5.24V4.4C4.12 4.48 3.64 5.32 3.64 6.4V28.04ZM30.0138 31.76V32H28.3338C28.0458 31.496 27.7818 30.992 27.5178 30.512L27.5418 30.584C26.3898 31.616 24.7338 32.336 22.7418 32.336C19.7898 32.336 17.1258 30.224 16.8378 27.176C16.8138 26.984 16.5978 24.32 18.7098 22.448C20.1258 21.176 21.7098 20.984 22.2617 20.96C21.5898 19.784 20.7978 18.728 20.9658 17.264C21.1818 15.416 22.3098 14.936 24.0378 14.888C24.6618 14.888 25.2138 15.08 25.4778 15.2V20.336H25.2138C25.1418 16.424 24.3978 15.128 23.4378 15.128C22.0458 15.128 21.5898 16.016 21.5658 17.384C21.5178 19.136 23.0538 21.224 23.7978 22.544C24.3018 22.352 24.8778 22.256 25.5258 22.256C26.9898 22.256 29.5338 22.952 29.5338 26.456C29.5338 27.704 29.0058 29.048 28.0218 30.128L28.4058 30.8C28.7898 31.28 29.4858 31.712 30.0138 31.76ZM24.2298 29.624L24.2058 29.672C22.5738 29.168 21.3498 27.824 21.3498 25.976C21.3498 24.512 22.0698 23.36 23.2698 22.736C22.9338 22.16 22.6458 21.632 22.4058 21.2C19.1658 21.32 17.3898 24.44 17.7258 27.464C17.7978 28.064 17.9898 29.744 19.4298 30.992C20.8698 32.24 22.5738 32.168 23.0538 32.144C24.6858 32.096 26.2458 31.304 27.2778 30.056C25.7898 27.32 24.4938 24.968 23.4858 23.144C22.7658 23.72 22.2138 24.728 22.2138 26.288C22.2138 27.656 23.1018 28.832 24.2298 29.624ZM23.9658 22.856L27.7338 29.624C28.3578 28.76 28.7418 27.776 28.7418 26.768C28.7418 24.128 27.3978 22.472 25.5258 22.472C25.0218 22.472 24.4698 22.592 23.9658 22.856ZM33.3063 29.6V6.4C33.3063 5.36 32.8263 4.48 31.7063 4.4V4H36.1063V4.4C35.0263 4.48 34.5063 5.4 34.5063 6.36V13.08L41.7063 4H43.7063V4.4C43.1863 4.48 41.1463 5.2 40.6663 5.84L36.1063 11.6C45.8663 17.84 42.1463 30.12 50.2263 33.64L50.1063 34C41.3863 31.84 43.7463 18.24 35.9062 11.84L34.5063 13.6V29.6C34.5063 30.68 34.9863 31.48 36.1063 31.6V32H31.7063V31.6C32.8263 31.48 33.3063 30.68 33.3063 29.6Z" fill="black"/>
</svg>
