<svg width="142" height="124" viewBox="0 0 142 124" fill="none" xmlns="http://www.w3.org/2000/svg">
<path d="M5.824 87.664L19.904 53.68V53.04C19.904 51.312 19.2 49.968 17.408 49.84V49.2H24.384V49.84C22.592 49.968 21.888 51.248 21.824 52.912V90.16C21.824 91.888 22.656 93.168 24.384 93.36V94H17.344V93.36C19.2 93.232 19.904 91.952 19.904 90.16V55.6L5.824 89.52V90.48C5.824 92.016 6.72 93.232 8.384 93.36V94H1.344V93.36C3.2 93.232 3.904 92.016 3.904 90.224V52.848C3.904 51.184 3.136 49.968 1.408 49.84V49.2H8.384V49.84C6.592 49.968 5.824 51.312 5.824 53.04V87.664Z" fill="black"/>
<path d="M108.28 94V93.36C110.392 93.168 111.224 92.144 111.928 90.16L123.512 54.704L123.256 53.808C122.744 52.336 122.296 50.16 118.072 49.84V49.2C119.288 49.2 120.504 49.2 121.72 49.2C123.064 49.2 123.704 49.2 124.152 50.544L137.08 90.16C137.72 91.696 138.488 93.168 140.28 93.36V94H133.88V93.36C135.608 93.232 135.928 92.336 135.288 90.352C133.176 83.952 131 77.424 128.888 70.96H118.968L112.76 90.16C112.504 90.928 111.928 93.168 113.976 93.36V94H108.28ZM119.16 70.32H128.696C127.096 65.392 125.432 60.528 123.896 55.664L119.16 70.32Z" fill="black"/>
<path d="M58.9838 14.8089L66.9509 22.1244C67.0907 22.2484 67.277 22.3259 67.4479 22.3259C67.6187 22.3259 67.8051 22.2639 67.9448 22.1244L75.912 14.8089C77.698 13.166 78.8938 11.2286 79.3598 9.21368C80.0276 6.37735 79.4685 3.727 77.8688 2.1151C77.1855 1.40214 75.3218 -0.194268 72.7748 0.0227189C70.5074 0.224207 68.5195 1.80511 67.4479 4.05248C66.3918 1.80511 64.3884 0.224207 62.1209 0.0227189C59.5739 -0.209768 57.7103 1.40214 56.9959 2.1151C55.4118 3.7115 54.8527 6.36185 55.5205 9.19819C56.0174 11.2286 57.2133 13.166 58.9838 14.8089ZM58.083 3.13804C58.5955 2.62657 59.9156 1.47963 61.655 1.47963C61.7637 1.47963 61.888 1.47963 62.0122 1.49513C64.3573 1.69662 66.3297 3.89749 66.7335 6.71833C66.7801 7.07481 67.0907 7.35379 67.4634 7.35379C67.8361 7.35379 68.1467 7.09031 68.1933 6.71833C68.5816 3.89749 70.5695 1.69662 72.9146 1.49513C74.8093 1.32464 76.3002 2.58007 76.8593 3.15354C78.0707 4.37797 78.49 6.56334 77.9465 8.85721C77.5427 10.5931 76.5021 12.267 74.9336 13.7084L67.4634 20.559L59.9932 13.7084C58.4247 12.267 57.3841 10.5931 56.9803 8.85721C56.4368 6.56334 56.8561 4.37797 58.083 3.13804Z" fill="black"/>
<path d="M42.6457 114.933C43.5465 118.064 41.8226 121.195 41.8071 121.226C41.6052 121.582 41.7294 122.032 42.0866 122.233C42.1953 122.295 42.3196 122.326 42.4438 122.326C42.7078 122.326 42.9563 122.187 43.0806 121.954C43.1582 121.799 45.1306 118.266 44.059 114.53C43.4067 112.252 40.2074 100.473 42.04 92.8935C43.3135 87.7168 44.4007 84.7565 44.9132 83.4856C45.1151 83.5941 45.3169 83.6716 45.5344 83.7336C44.3385 88.0268 43.8881 92.3356 43.8571 92.6455C43.8105 93.0485 44.1056 93.405 44.5249 93.4515C44.556 93.4515 44.5715 93.4515 44.6026 93.4515C44.9753 93.4515 45.3014 93.1725 45.3325 92.785C45.348 92.661 46.5905 80.5562 50.3799 77.0845L51.4204 76.1545C51.9329 75.705 52.4454 75.2246 52.9735 74.7286C53.1754 74.6666 53.3151 74.5271 53.3773 74.3411C55.1011 72.7137 56.8716 70.8383 58.4557 68.3895C60.7387 64.8402 61.655 61.6938 62.183 59.8959C64.3573 52.4254 66.7956 44.0404 69.4202 37.4687C69.4668 37.4068 69.4824 37.3293 69.4979 37.2673C72.107 30.7576 74.9025 26.0769 77.7912 25.9064C79.4685 25.7979 80.9439 27.3633 81.3632 27.8593C84.3295 31.3466 82.031 37.3293 79.3753 44.2574C77.0146 50.4105 74.3279 57.3696 74.9025 64.0342C75.415 70.0634 77.7135 79.9673 77.9775 81.0987L79.4063 80.7422C79.1423 79.6418 76.8749 69.8464 76.3624 63.9102C76.0207 59.9734 76.9059 55.8662 78.1794 51.8674C82.9783 57.5091 86.6901 63.7862 89.2216 70.5748C90.4174 73.7986 91.0076 75.4105 91.1163 77.3014C91.5046 83.4391 88.0568 87.7478 83.7083 93.2035C80.4158 97.3108 76.6885 101.976 73.5358 108.579C71.3771 113.058 69.7619 117.956 68.7524 123.117C68.6748 123.52 68.9388 123.907 69.3426 123.985C69.3737 124 69.4202 124 69.4668 124C69.8085 124 70.1191 123.752 70.1968 123.411C71.1907 118.374 72.7593 113.585 74.8714 109.214C77.962 102.766 81.6272 98.1787 84.8731 94.118C89.439 88.4143 93.0421 83.9041 92.6072 77.2084C92.483 75.1161 91.8618 73.4267 90.6193 70.0634C87.9326 62.8408 83.9412 56.1762 78.7541 50.24C79.3908 48.3801 80.0897 46.5512 80.7575 44.7998C83.584 37.4223 86.0378 31.0676 82.4969 26.9139C81.8291 26.1234 79.9965 24.31 77.7135 24.4495C74.3434 24.651 71.346 29.2077 68.5971 35.7174C62.3539 28.4173 56.2349 25.0385 52.461 26.8519C52.1659 26.9914 50.675 27.7353 49.9916 29.4247C48.8424 32.2921 51.0632 35.1594 54.1227 39.1117C55.5826 40.987 57.2288 43.1104 58.8285 45.6213C59.636 46.8767 60.397 48.2251 61.1425 49.62C59.5584 50.798 57.9898 52.0069 56.4989 53.2468C54.9769 54.5023 53.8898 56.0677 53.253 57.8191C52.725 58.1136 52.1504 58.377 51.5447 58.656C49.4947 59.586 47.1806 60.6244 46.5439 62.9338V62.9493C46.2954 63.8172 46.1401 64.6697 46.0469 65.5221C45.6276 66.1266 45.0529 66.3126 44.2453 66.5451C43.4688 66.7776 42.5991 67.041 41.8071 67.7695C39.8658 69.5984 40.1764 72.6672 40.3938 74.7906C40.7665 78.2004 42.3506 80.8197 43.7328 82.4936C43.2669 83.5631 42.0556 86.6474 40.6112 92.5526C38.732 100.287 41.6983 111.647 42.6457 114.933ZM60.0709 44.8153C58.4247 42.2425 56.7629 40.0881 55.2875 38.1972C52.5231 34.6324 50.5197 32.0441 51.3583 29.9672C51.8397 28.7428 53.0201 28.2003 53.0822 28.1693C56.2349 26.6659 62.183 30.2927 67.9604 37.2363C66.3452 41.266 64.8232 45.9158 63.3634 50.705C63.1615 50.271 62.944 49.8525 62.7421 49.4341C61.888 47.8376 60.9872 46.2722 60.0709 44.8153ZM54.0451 64.0187C53.983 63.3987 53.9208 62.8718 53.9364 62.1588C53.9674 60.5624 54.2936 59.369 54.4489 58.7955C54.9148 57.1216 55.9553 55.6027 57.4307 54.3628C58.844 53.2003 60.3194 52.0534 61.8103 50.9375C62.1054 51.5419 62.4005 52.1774 62.6955 52.8594C62.0277 55.1067 61.3599 57.3696 60.7232 59.586C60.2573 61.2134 59.372 64.2357 57.1978 67.599C56.1417 69.2264 55.008 70.5748 53.8587 71.7993C54.1849 69.7379 54.2936 67.7075 54.1848 65.6461C54.1538 64.9797 54.0917 64.4682 54.0451 64.0187ZM47.9571 63.3212C48.4075 61.6628 50.3178 60.7949 52.1504 59.9734C52.3367 59.8804 52.5231 59.803 52.7095 59.71C52.5852 60.3609 52.4765 61.1669 52.461 62.1278C52.4454 62.9338 52.5076 63.5072 52.5852 64.1737C52.6318 64.6077 52.6784 65.1036 52.725 65.7391C52.8648 68.3585 52.6318 70.9313 52.0261 73.6127C51.4981 74.1086 50.9545 74.5891 50.4265 75.0696L49.3859 76.015C49.184 76.201 49.0132 76.4025 48.8268 76.6195C48.7337 75.1626 48.5784 73.7366 48.2988 72.3727C48.159 71.6908 48.0193 71.1793 47.9105 70.7298C47.7552 70.1409 47.631 69.6294 47.5223 68.9319C47.2738 67.1185 47.4136 65.2276 47.9571 63.3212ZM41.8537 74.5116C41.6673 72.7757 41.4033 70.1564 42.8165 68.8234C43.3601 68.3275 43.9969 68.126 44.6647 67.9245C45.0685 67.8005 45.5033 67.661 45.9226 67.4595C45.9382 68.0175 45.9692 68.5599 46.0469 69.1179C46.1556 69.8929 46.2954 70.4353 46.4662 71.0863C46.5749 71.5203 46.7147 72.0162 46.8389 72.6672C47.2427 74.5891 47.4291 76.6195 47.4291 78.7119C46.8545 79.7968 46.373 81.0367 45.9537 82.3076C45.6431 82.2147 45.348 82.0752 45.1151 81.8427C43.826 80.3548 42.2264 77.8904 41.8537 74.5116Z" fill="black"/>
</svg>
